# xmcd
#
# Track frame offsets:
#	150
#	14088
#	23415
#	39403
#	49523
#	58088
#	74943
#	86120
#	97845
#	112893
#	122970
#	136733
#
# Disc length: 2008 seconds
#
# Revision: 1
# Processed by: cddbd v1.5.1PL2 Copyright (c) Steve Scherf et al.
# Submitted via: audiograbber 1.83.01
#
DISCID=9f07d60c
DTITLE=Tommy Jennings - Eagle's Last Flight
DYEAR=2005
DGENRE=Country
TTITLE0=Eagle's Last Flight
TTITLE1=Girl In The Blue Velvet Band
TTITLE2=Me And Them Three Brothers Of Mine
TTITLE3=When Sin Stops
TTITLE4=That's The Chance I'll Have To Take
TTITLE5=He Did The Best He Could (With What He Had)
TTITLE6=Only Daddy That'll Walk The Line
TTITLE7=Dreaming My Dreams
TTITLE8=Don't You Think It's Time
TTITLE9=You Asked Me To
TTITLE10=Rainy Day Woman
TTITLE11=Eagle's Last Flight
EXTD=A Family Tribute to Waylon Jennings
EXTT0=
EXTT1=
EXTT2=
EXTT3=
EXTT4=
EXTT5=
EXTT6=
EXTT7=
EXTT8=
EXTT9=
EXTT10=
EXTT11=
PLAYORDER=
